HIERARCHY
ROOT Hips
{
	OFFSET -0.001795 -0.223333 0.028219
	CHANNELS 6 Xposition Yposition Zposition Zrotation Yrotation Xrotation 
	JOINT LeftUpLeg
	{
		OFFSET 0.069520 -0.091406 -0.006815
		CHANNELS 3 Zrotation Yrotation Xrotation
		JOINT LeftLeg
		{
			OFFSET 0.034277 -0.375199 -0.004496
			CHANNELS 3 Zrotation Yrotation Xrotation
			JOINT LeftFoot
			{
				OFFSET -0.013596 -0.397961 -0.043693
				CHANNELS 3 Zrotation Yrotation Xrotation
				JOINT LeftToe
				{
					OFFSET 0.026358 -0.055791 0.119288
					CHANNELS 3 Zrotation Yrotation Xrotation
					End Site
					{
						OFFSET 0.000000 0.000000 0.000000
					}
				}
			}
		}
	}
	JOINT RightUpLeg
	{
		OFFSET -0.067670 -0.090522 -0.004320
		CHANNELS 3 Zrotation Yrotation Xrotation
		JOINT RightLeg
		{
			OFFSET -0.038290 -0.382569 -0.008850
			CHANNELS 3 Zrotation Yrotation Xrotation
			JOINT RightFoot
			{
				OFFSET 0.015774 -0.398415 -0.042312
				CHANNELS 3 Zrotation Yrotation Xrotation
				JOINT RightToe
				{
					OFFSET -0.025372 -0.048144 0.123348
					CHANNELS 3 Zrotation Yrotation Xrotation
					End Site
					{
						OFFSET 0.000000 0.000000 0.000000
					}
				}
			}
		}
	}
	JOINT Spine
	{
		OFFSET -0.002533 0.108963 -0.026696
		CHANNELS 3 Zrotation Yrotation Xrotation
		JOINT Spine1
		{
			OFFSET 0.005487 0.135180 0.001092
			CHANNELS 3 Zrotation Yrotation Xrotation
			JOINT Spine2
			{
				OFFSET 0.001457 0.052922 0.025425
				CHANNELS 3 Zrotation Yrotation Xrotation
				JOINT Neck
				{
					OFFSET -0.002778 0.213870 -0.042857
					CHANNELS 3 Zrotation Yrotation Xrotation
					JOINT Head
					{
						OFFSET 0.005152 0.064970 0.051349
						CHANNELS 3 Zrotation Yrotation Xrotation
						End Site
						{
							OFFSET 0.000000 0.000000 0.000000
						}
					}
				}
				JOINT LeftShoulder
				{
					OFFSET 0.078845 0.121749 -0.034090
					CHANNELS 3 Zrotation Yrotation Xrotation
					JOINT LeftArm
					{
						OFFSET 0.090977 0.030469 -0.008868
						CHANNELS 3 Zrotation Yrotation Xrotation
						JOINT LeftForeArm
						{
							OFFSET 0.259612 -0.012772 -0.027456
							CHANNELS 3 Zrotation Yrotation Xrotation
							JOINT LeftHand
							{
								OFFSET 0.249234 0.008986 -0.001171
								CHANNELS 3 Zrotation Yrotation Xrotation
								End Site
								{
									OFFSET 0.000000 0.000000 0.000000
								}
							}
						}
					}
				}
				JOINT RightShoulder
				{
					OFFSET -0.081759 0.118833 -0.038615
					CHANNELS 3 Zrotation Yrotation Xrotation
					JOINT RightArm
					{
						OFFSET -0.096012 0.032551 -0.009143
						CHANNELS 3 Zrotation Yrotation Xrotation
						JOINT RightForeArm
						{
							OFFSET -0.253742 -0.013329 -0.021401
							CHANNELS 3 Zrotation Yrotation Xrotation
							JOINT RightHand
							{
								OFFSET -0.255298 0.007772 -0.005559
								CHANNELS 3 Zrotation Yrotation Xrotation
								End Site
								{
									OFFSET 0.000000 0.000000 0.000000
								}
							}
						}
					}
				}
			}
		}
	}
}
MOTION
Frames: 9
Frame Time: 0.050000
-0.091193 0.960478 -0.029010 0.161603 -4.426422 4.888100 6.288231 -0.360025 -7.618845 -2.706261 0.293606 11.523828 8.694585 18.126715 7.740459 0.000000 0.000000 0.000000 -4.050979 1.150933 -14.291070 -4.720760 1.553221 12.228824 5.887201 11.931915 3.920901 0.000000 0.000000 0.000000 11.456627 -0.357186 0.835169 6.413383 -2.631800 -4.653993 0.145693 -1.339387 6.405170 5.548806 -2.922438 -13.603963 0.000000 0.000000 0.000000 -8.128038 2.734319 -1.526919 -51.617640 -13.798227 -0.157337 20.089821 -72.932636 -9.793577 0.000000 0.000000 0.000000 6.929867 -18.376226 -8.324618 54.549425 7.788034 -2.167835 -105.695941 61.133736 -72.502994 0.000000 0.000000 0.000000 
-0.093947 0.960649 -0.027328 -0.317111 -1.981298 5.016610 6.938056 -0.372199 -7.728279 -1.855306 0.053566 10.935693 7.147845 15.561675 7.498495 0.000000 0.000000 0.000000 -3.290371 1.085143 -13.149252 -4.904382 1.438973 10.871051 5.153575 10.130419 4.069942 0.000000 0.000000 0.000000 10.103290 -0.170409 -0.572147 6.203483 -2.509584 -4.859729 -0.761407 -2.569986 5.392787 5.732214 -3.119854 -12.472554 0.000000 0.000000 0.000000 -8.448534 3.199336 -1.792233 -50.769475 -20.612806 2.843629 41.808027 -69.552401 -24.675215 0.000000 0.000000 0.000000 5.869395 -18.774296 -8.133840 56.006248 8.927164 -1.607773 -105.526621 58.214704 -68.903533 0.000000 0.000000 0.000000 
-0.095595 0.960982 -0.025402 -0.750199 0.302106 5.358990 7.606859 -0.403342 -8.297353 -1.054145 -0.141366 10.244035 6.003935 13.656932 7.142786 0.000000 0.000000 0.000000 -3.122323 1.013132 -12.386948 -4.093835 1.170844 9.797410 4.317575 8.339966 3.931674 0.000000 0.000000 0.000000 8.656229 0.025921 -2.262725 5.668852 -2.225125 -5.319862 -1.462735 -3.623334 4.729237 5.568827 -3.047247 -11.788424 0.000000 0.000000 0.000000 -8.167034 2.294748 -1.420488 -50.817536 -28.652727 6.561712 60.422841 -62.117028 -33.782824 0.000000 0.000000 0.000000 3.953997 -18.774711 -7.525376 57.215771 10.739035 -0.703115 -103.530297 54.717531 -62.898390 0.000000 0.000000 0.000000 
-0.095906 0.960911 -0.023473 -0.896091 2.595818 5.652791 7.989063 -0.441872 -8.391212 -0.973056 -0.158657 9.053442 4.598535 11.356705 7.233123 0.000000 0.000000 0.000000 -2.725280 0.953531 -11.511960 -4.090939 1.098412 9.042863 3.252249 6.143026 3.570973 0.000000 0.000000 0.000000 6.957300 0.177731 -3.858100 5.132276 -1.966020 -5.427754 -2.297107 -4.826983 4.034070 5.338318 -2.885737 -11.510374 0.000000 0.000000 0.000000 -7.096250 1.877683 -1.190689 -52.507834 -36.337314 10.807707 70.279839 -54.958368 -35.534230 0.000000 0.000000 0.000000 2.013404 -17.344736 -6.413215 58.703326 13.453217 0.717037 -101.033502 50.979473 -56.393338 0.000000 0.000000 0.000000 
-0.095085 0.960678 -0.021835 -1.050297 3.507579 5.942729 8.356200 -0.455347 -8.494489 -0.654527 -0.197561 8.181239 3.863802 10.105506 7.117026 0.000000 0.000000 0.000000 -2.492427 0.916455 -10.877326 -4.023674 1.005560 7.967925 3.032206 5.429908 3.982742 0.000000 0.000000 0.000000 5.565837 0.274049 -5.151449 4.511661 -1.655029 -5.899834 -2.778007 -4.800282 3.758243 5.177684 -2.733417 -11.411313 0.000000 0.000000 0.000000 -4.865804 1.031687 -0.720742 -56.152066 -43.122288 15.731330 73.789958 -49.379513 -33.831637 0.000000 0.000000 0.000000 0.422952 -16.109848 -5.544966 59.012652 16.589265 2.426733 -96.467368 48.347035 -49.497811 0.000000 0.000000 0.000000 
-0.093883 0.960288 -0.020859 -0.783183 4.940972 5.894543 8.279512 -0.483175 -8.304045 -0.676016 -0.174021 7.224082 2.481185 7.931740 7.641348 0.000000 0.000000 0.000000 -2.643001 0.854108 -10.340097 -3.833687 0.949164 7.717533 2.211875 3.424253 4.286709 0.000000 0.000000 0.000000 4.429539 0.337103 -6.325207 3.848618 -1.361274 -5.901048 -3.989237 -5.744370 3.826164 4.410320 -2.096815 -12.550041 0.000000 0.000000 0.000000 -3.271915 0.663580 -0.463736 -60.073926 -48.562983 20.768728 75.453945 -45.163768 -31.647760 0.000000 0.000000 0.000000 -1.022865 -14.330538 -4.578711 60.036092 19.641952 4.106297 -92.989730 45.260351 -43.652319 0.000000 0.000000 0.000000 
-0.092813 0.959965 -0.020272 -0.697676 5.674124 5.975347 8.332209 -0.489766 -7.931776 -0.650807 -0.149079 6.284135 1.819329 6.918544 7.912910 0.000000 0.000000 0.000000 -2.622444 0.822437 -9.954942 -3.988997 0.955216 7.430408 1.965643 2.692205 4.721883 0.000000 0.000000 0.000000 3.299098 0.342076 -6.941337 3.224360 -1.042081 -6.597173 -4.267953 -5.774427 4.045634 3.327343 -1.367779 -12.598761 0.000000 0.000000 0.000000 -1.893190 0.432062 -0.287069 -63.576286 -53.017165 25.492352 76.049085 -41.309405 -29.178946 0.000000 0.000000 0.000000 -2.440816 -13.568195 -4.016845 60.871092 23.209233 6.183074 -90.105964 42.724898 -38.897879 0.000000 0.000000 0.000000 
-0.092170 0.959937 -0.019873 -0.442159 6.658257 6.106384 8.293264 -0.512586 -7.902828 -0.756930 -0.117424 5.673376 0.468966 4.815503 8.383426 0.000000 0.000000 0.000000 -2.819990 0.797816 -9.893984 -3.986484 0.943929 7.324065 1.495911 1.413262 5.344672 0.000000 0.000000 0.000000 2.232441 0.351694 -7.956252 2.904378 -0.955895 -5.742418 -5.109133 -6.521356 3.100531 2.344410 -0.702137 -12.760792 0.000000 0.000000 0.000000 -0.402028 1.486102 -0.539249 -67.125033 -56.126575 29.971180 75.366503 -37.795127 -26.321661 0.000000 0.000000 0.000000 -4.172420 -12.381413 -3.236507 61.766731 26.562660 8.288457 -87.731142 37.883316 -32.950409 0.000000 0.000000 0.000000 
-0.091838 0.960486 -0.019652 -0.234135 6.892466 6.133151 8.446624 -0.514998 -7.911921 -1.142918 -0.054432 5.402838 0.105642 4.315116 8.671889 0.000000 0.000000 0.000000 -2.638503 0.799000 -9.774187 -4.276704 1.015186 7.651603 1.235020 0.880074 5.239134 0.000000 0.000000 0.000000 1.402800 0.319808 -8.017425 2.342979 -0.659157 -6.667601 -5.063490 -6.517183 3.481918 1.866194 -0.442963 -12.190843 0.000000 0.000000 0.000000 0.482988 1.065197 -0.319001 -64.887368 -59.323456 31.097708 76.058432 -31.404365 -21.856172 0.000000 0.000000 0.000000 -5.013559 -11.791575 -2.898347 59.997314 29.741632 9.706336 -86.878127 32.440547 -27.320896 0.000000 0.000000 0.000000 
